Coordinates
version=1
nRows=12
nColumns=34
inDegrees=no

Units are S.I. units (second, meters, Newtons, ...)
If the header above contains a line with 'inDegrees', this indicates whether rotational values are in degrees (yes) or radians (no).

endheader
time	pelvis_tilt	pelvis_list	pelvis_rotation	pelvis_tx	pelvis_ty	pelvis_tz	hip_flexion_r	hip_adduction_r	hip_rotation_r	knee_angle_r	ankle_angle_r	subtalar_angle_r	mtp_angle_r	hip_flexion_l	hip_adduction_l	hip_rotation_l	knee_angle_l	ankle_angle_l	subtalar_angle_l	mtp_angle_l	lumbar_extension	lumbar_bending	lumbar_rotation	arm_flex_r	arm_add_r	arm_rot_r	elbow_flex_r	pro_sup_r	arm_flex_l	arm_add_l	arm_rot_l	elbow_flex_l	pro_sup_l
0.96	0.0471036	0.0737818	0.00785952	0.951868	0.972498	-0.231299	0.456915	-0.174118	-0.0471766	0.965609	0.0268015	-0.00715055	0.0131582	-0.105741	0.149299	-0.0755672	0.0693113	0.167603	-0.0708906	-0.0366817	-0.143893	-0.169179	-0.0626788	0.047569	-0.129465	-0.146639	0.396799	1.61742	0.268433	-0.256648	0.136897	0.457829	1.87477
0.97	0.0458321	0.0664179	0.013445	0.961222	0.972303	-0.231781	0.462222	-0.164382	-0.0611007	0.917278	0.0292316	0.00204034	0.0131732	-0.12168	0.14117	-0.0671979	0.0587736	0.175101	-0.0644323	-0.036571	-0.142448	-0.160908	-0.0754844	0.0382108	-0.13008	-0.168676	0.385539	1.59621	0.287079	-0.26151	0.132621	0.476967	1.8741
0.98	0.0437525	0.0596041	0.0185377	0.970607	0.971859	-0.232178	0.46672	-0.155053	-0.0760321	0.865158	0.0305691	0.0122426	0.0131882	-0.135987	0.133284	-0.0599444	0.0494286	0.183229	-0.0578693	-0.0364604	-0.139873	-0.15343	-0.0873863	0.0285175	-0.13101	-0.188802	0.375252	1.57549	0.305039	-0.266619	0.129123	0.496102	1.87219
0.99	0.0409857	0.05339	0.0231001	0.980036	0.971182	-0.232486	0.470222	-0.146044	-0.0919684	0.809255	0.030947	0.0242518	0.0132032	-0.148977	0.125777	-0.0536563	0.0410037	0.191777	-0.0513362	-0.0363497	-0.136319	-0.146825	-0.0983262	0.0184276	-0.132234	-0.206886	0.365982	1.55683	0.322367	-0.271896	0.126383	0.515112	1.86936
1	0.0376666	0.0478086	0.0271027	0.989519	0.970289	-0.232701	0.472553	-0.137236	-0.108862	0.749649	0.0305522	0.0387901	0.0132182	-0.160988	0.118756	-0.0481374	0.0332135	0.20047	-0.0450372	-0.0362392	-0.131967	-0.141139	-0.108242	0.00789536	-0.133727	-0.222882	0.357703	1.5415	0.339134	-0.277246	0.124323	0.533881	1.86598
1.01	0.033935	0.0428694	0.0305236	0.999068	0.969198	-0.232821	0.473578	-0.128482	-0.126586	0.686538	0.0296289	0.0564054	0.0132332	-0.172333	0.11229	-0.043193	0.0258143	0.209035	-0.0391853	-0.0361286	-0.127008	-0.136379	-0.117068	-0.00310533	-0.135469	-0.236794	0.350298	1.53037	0.355416	-0.282565	0.122845	0.552305	1.86247
1.02	0.029924	0.0385576	0.0333528	1.00869	0.967929	-0.232847	0.473213	-0.119619	-0.14489	0.620278	0.0284718	0.0773702	0.0132482	-0.183261	0.106403	-0.0386792	0.0186537	0.21726	-0.0339286	-0.0360181	-0.121638	-0.132512	-0.124747	-0.0145773	-0.13744	-0.248638	0.343546	1.52385	0.371289	-0.287749	0.121847	0.570295	1.85922
1.03	0.0257524	0.0348359	0.0355992	1.01839	0.966501	-0.23278	0.471452	-0.110496	-0.163373	0.551441	0.0274087	0.101588	0.0132633	-0.193928	0.101081	-0.0345458	0.0117082	0.225047	-0.0292804	-0.0359077	-0.116034	-0.129465	-0.131239	-0.0264973	-0.139617	-0.258421	0.337141	1.52184	0.386815	-0.292693	0.121232	0.587781	1.8566
1.04	0.0215173	0.0316506	0.037299	1.02817	0.964934	-0.232627	0.468371	-0.101	-0.181468	0.480859	0.0267705	0.128519	0.0132783	-0.204376	0.0962722	-0.0308629	0.00510391	0.232443	-0.0250738	-0.0357972	-0.110351	-0.12714	-0.136547	-0.0388137	-0.141975	-0.266131	0.330731	1.52383	0.402028	-0.297298	0.120906	0.604714	1.85489
1.05	0.0172902	0.0289395	0.0385225	1.03804	0.963249	-0.232396	0.464144	-0.0910887	-0.198466	0.409653	0.0268591	0.15716	0.0132934	-0.214532	0.091905	-0.0278235	-0.000883691	0.23964	-0.0209548	-0.0356869	-0.104708	-0.125421	-0.140721	-0.0514439	-0.144483	-0.271744	0.323983	1.52897	0.41692	-0.301475	0.120763	0.621075	1.85426
1.06	0.0131145	0.0266386	0.0393757	1.04801	0.961468	-0.232098	0.45904	-0.0808136	-0.213577	0.339244	0.0279147	0.186078	0.0133084	-0.22422	0.0878938	-0.0257223	-0.00585407	0.246935	-0.0164173	-0.0355765	-0.0991874	-0.124185	-0.143874	-0.0642736	-0.147108	-0.275254	0.316646	1.53618	0.431436	-0.305145	0.120681	0.636876	1.85479
1.07	0.00900839	0.0246835	0.0399963	1.05806	0.959614	-0.231744	0.45342	-0.0703305	-0.226039	0.271316	0.030091	0.213545	0.0133235	-0.233195	0.0841454	-0.024916	-0.00932715	0.254674	-0.0108719	-0.0354662	-0.0938336	-0.123309	-0.146179	-0.077159	-0.149813	-0.276695	0.308596	1.5443	0.445467	-0.308244	0.120511	0.652158	1.85645
